<svg width="20" height="20" viewBox="0 0 20 20" fill="none" xmlns="http://www.w3.org/2000/svg">
<g clip-path="url(#clip0_137_3788)">
<path d="M2.5 0C1.83696 0 1.20107 0.263392 0.732233 0.732233C0.263392 1.20107 0 1.83696 0 2.5L0 17.5C0 18.163 0.263392 18.7989 0.732233 19.2678C1.20107 19.7366 1.83696 20 2.5 20H17.5C18.163 20 18.7989 19.7366 19.2678 19.2678C19.7366 18.7989 20 18.163 20 17.5V2.5C20 1.83696 19.7366 1.20107 19.2678 0.732233C18.7989 0.263392 18.163 0 17.5 0L2.5 0ZM9.9925 15.1975C8.03 15.1975 6.675 14.07 6.59375 12.5538H8.14C8.315 13.4538 9.18 13.8425 10.0513 13.8425C11.04 13.8425 12.0138 13.0962 12.0138 11.7412C12.0138 10.5325 11.0988 9.77875 10.0363 9.77875C9.0775 9.77875 8.48375 10.3412 8.2425 10.7887H6.80625L7.23875 5H13.12V6.37875H8.59375L8.3525 9.3075H8.4325C8.645 8.985 9.32625 8.4575 10.4463 8.4575C12.175 8.4575 13.6475 9.6375 13.6475 11.6887C13.6475 13.7975 12.1675 15.1962 9.9925 15.1962V15.1975Z" fill="white"/>
</g>
<defs>
<clipPath id="clip0_137_3788">
<rect width="20" height="20" fill="white"/>
</clipPath>
</defs>
</svg>
