<svg width="20" height="20" viewBox="0 0 20 20" fill="none" xmlns="http://www.w3.org/2000/svg">
<g clip-path="url(#clip0_137_3773)">
<path d="M2.5 0C1.83696 0 1.20107 0.263392 0.732233 0.732233C0.263392 1.20107 0 1.83696 0 2.5L0 17.5C0 18.163 0.263392 18.7989 0.732233 19.2678C1.20107 19.7366 1.83696 20 2.5 20H17.5C18.163 20 18.7989 19.7366 19.2678 19.2678C19.7366 18.7989 20 18.163 20 17.5V2.5C20 1.83696 19.7366 1.20107 19.2678 0.732233C18.7989 0.263392 18.163 0 17.5 0L2.5 0ZM9.8975 10.5175H8.79875V9.1775H9.84625C10.8212 9.1775 11.5312 8.525 11.5238 7.63125C11.5238 6.745 10.82 6.1375 9.83875 6.1375C8.85125 6.1375 8.19875 6.76 8.15375 7.45625H6.59375C6.63875 6.035 7.78125 4.8125 9.875 4.805C11.8675 4.79 13.135 5.91125 13.1712 7.3825C13.2 8.80375 12.065 9.6025 11.3188 9.72625V9.81375C12.1975 9.90125 13.4562 10.6137 13.4862 12.21C13.5162 14.0337 11.89 15.205 9.82375 15.205C7.6925 15.205 6.44 13.9963 6.38125 12.525H7.9125C7.98625 13.2713 8.7625 13.85 9.83875 13.8575C11.055 13.865 11.8387 13.1538 11.8237 12.165C11.8162 11.1913 11.0475 10.5175 9.8975 10.5175Z" fill="#E9E9E9"/>
</g>
<defs>
<clipPath id="clip0_137_3773">
<rect width="20" height="20" fill="white"/>
</clipPath>
</defs>
</svg>
