<svg width="20" height="20" viewBox="0 0 20 20" fill="none" xmlns="http://www.w3.org/2000/svg">
<g clip-path="url(#clip0_137_3771)">
<path d="M2.5 0C1.83696 0 1.20107 0.263392 0.732233 0.732233C0.263392 1.20107 0 1.83696 0 2.5L0 17.5C0 18.163 0.263392 18.7989 0.732233 19.2678C1.20107 19.7366 1.83696 20 2.5 20H17.5C18.163 20 18.7989 19.7366 19.2678 19.2678C19.7366 18.7989 20 18.163 20 17.5V2.5C20 1.83696 19.7366 1.20107 19.2678 0.732233C18.7989 0.263392 18.163 0 17.5 0L2.5 0ZM8.3075 7.8V7.8875H6.71875V7.8075C6.71875 6.29125 7.8175 4.805 10.015 4.805C11.9925 4.805 13.2812 5.99125 13.2812 7.57375C13.2812 8.82625 12.5312 9.6575 11.6725 10.6112L11.5525 10.745L9.085 13.52V13.6162H13.4575V15H6.7775V13.96L10.49 9.84375C11.0325 9.25 11.6187 8.58375 11.6187 7.7125C11.6187 6.7825 10.9225 6.1675 9.9775 6.1675C8.92375 6.1675 8.3075 6.93625 8.3075 7.8Z" fill="#E9E9E9"/>
</g>
<defs>
<clipPath id="clip0_137_3771">
<rect width="20" height="20" fill="white"/>
</clipPath>
</defs>
</svg>
