<svg width="20" height="20" viewBox="0 0 20 20" fill="none" xmlns="http://www.w3.org/2000/svg">
<g clip-path="url(#clip0_137_3790)">
<path d="M7.78125 11.6012V11.6675H11.0625V6.32874H10.9812C9.8975 7.99124 8.7475 9.83624 7.78125 11.6012Z" fill="white"/>
<path d="M2.5 0C1.83696 0 1.20107 0.263392 0.732233 0.732233C0.263392 1.20107 0 1.83696 0 2.5L0 17.5C0 18.163 0.263392 18.7989 0.732233 19.2678C1.20107 19.7366 1.83696 20 2.5 20H17.5C18.163 20 18.7989 19.7366 19.2678 19.2678C19.7366 18.7989 20 18.163 20 17.5V2.5C20 1.83696 19.7366 1.20107 19.2678 0.732233C18.7989 0.263392 18.163 0 17.5 0L2.5 0ZM9.39875 6.32125C9.67375 5.88125 9.9475 5.4425 10.22 5.0025H12.6363V11.6675H13.8962V13.0513H12.6375V15H11.0625V13.0513H6.2225V11.6525C7.185 9.86875 8.29125 8.09375 9.39875 6.32125Z" fill="white"/>
</g>
<defs>
<clipPath id="clip0_137_3790">
<rect width="20" height="20" fill="white"/>
</clipPath>
</defs>
</svg>
