<svg width="162" height="162" viewBox="0 0 162 162" fill="none" xmlns="http://www.w3.org/2000/svg">
<path d="M126.36 99.6299C128.722 93.8924 130.005 87.7499 130.005 80.9999C130.005 76.1399 129.262 71.4824 127.98 67.1624C123.592 68.1749 119.003 68.7149 114.21 68.7149C104.395 68.7255 94.7219 66.3762 86.0053 61.8652C77.2887 57.3542 69.7844 50.8136 64.125 42.7949C58.0709 57.4436 46.6501 69.2266 32.1975 75.7349C31.9275 77.4224 31.9275 79.2449 31.9275 80.9999C31.9275 87.4442 33.1968 93.8254 35.6629 99.7792C38.129 105.733 41.7437 111.143 46.3005 115.699C55.5034 124.902 67.9852 130.072 81 130.072C88.0875 130.072 94.905 128.52 101.048 125.752C104.895 133.11 106.65 136.755 106.515 136.755C95.445 140.467 86.8725 142.29 81 142.29C64.665 142.29 49.0725 135.877 37.5975 124.335C30.618 117.377 25.4297 108.83 22.4775 99.4274H13.5V68.7149H20.8575C23.0866 57.8644 28.2116 47.8197 35.6885 39.6467C43.1655 31.4737 52.7155 25.4772 63.3253 22.2936C73.9351 19.1099 85.2089 18.8579 95.9503 21.5642C106.692 24.2705 116.5 29.8342 124.335 37.6649C132.842 46.1379 138.644 56.9436 141.007 68.7149H148.5V99.4274H148.095L124.065 121.5L88.29 117.45V106.177H120.893L126.36 99.6299ZM62.5725 79.4474C64.5975 79.4474 66.555 80.2574 67.9725 81.7424C69.3971 83.1786 70.1964 85.1196 70.1964 87.1424C70.1964 89.1653 69.3971 91.1062 67.9725 92.5424C66.555 93.9599 64.5975 94.7699 62.5725 94.7699C58.32 94.7699 54.8775 91.3949 54.8775 87.1424C54.8775 82.8899 58.32 79.4474 62.5725 79.4474ZM99.36 79.4474C103.613 79.4474 106.988 82.8899 106.988 87.1424C106.988 91.3949 103.613 94.7699 99.36 94.7699C95.1075 94.7699 91.665 91.3949 91.665 87.1424C91.665 85.1016 92.4757 83.1443 93.9188 81.7013C95.3619 80.2582 97.3192 79.4474 99.36 79.4474Z" fill="white"/>
</svg>
