<svg width="30" height="31" viewBox="0 0 30 31" fill="none" xmlns="http://www.w3.org/2000/svg">
<path d="M17.5 2.58325H7.5C6.83696 2.58325 6.20107 2.85542 5.73223 3.33989C5.26339 3.82436 5 4.48144 5 5.16659V25.8333C5 26.5184 5.26339 27.1755 5.73223 27.6599C6.20107 28.1444 6.83696 28.4166 7.5 28.4166H22.5C23.163 28.4166 23.7989 28.1444 24.2678 27.6599C24.7366 27.1755 25 26.5184 25 25.8333V10.3333L17.5 2.58325Z" stroke="#CA9ECD" stroke-width="2" stroke-linecap="round" stroke-linejoin="round"/>
<path d="M17.5 2.58325V10.3333H25" stroke="#CA9ECD" stroke-width="2" stroke-linecap="round" stroke-linejoin="round"/>
<path d="M20 16.7917H10" stroke="#CA9ECD" stroke-width="2" stroke-linecap="round" stroke-linejoin="round"/>
<path d="M20 21.9583H10" stroke="#CA9ECD" stroke-width="2" stroke-linecap="round" stroke-linejoin="round"/>
<path d="M12.5 11.625H11.25H10" stroke="#CA9ECD" stroke-width="2" stroke-linecap="round" stroke-linejoin="round"/>
</svg>
