<svg width="21" height="16" viewBox="0 0 21 16" fill="none" xmlns="http://www.w3.org/2000/svg">
<path d="M13.125 8C13.125 8.53043 12.8484 9.03914 12.3562 9.41421C11.8639 9.78929 11.1962 10 10.5 10C9.80381 10 9.13613 9.78929 8.64384 9.41421C8.15156 9.03914 7.875 8.53043 7.875 8C7.875 7.46957 8.15156 6.96086 8.64384 6.58579C9.13613 6.21071 9.80381 6 10.5 6C11.1962 6 11.8639 6.21071 12.3562 6.58579C12.8484 6.96086 13.125 7.46957 13.125 8Z" stroke="#E9E9E9" stroke-opacity="0.65" stroke-linecap="round" stroke-linejoin="round"/>
<path d="M2.15076 8C3.26551 5.29533 6.58263 3.33333 10.5 3.33333C14.4183 3.33333 17.7345 5.29533 18.8493 8C17.7345 10.7047 14.4183 12.6667 10.5 12.6667C6.58263 12.6667 3.26551 10.7047 2.15076 8Z" stroke="#E9E9E9" stroke-opacity="0.65" stroke-linecap="round" stroke-linejoin="round"/>
</svg>
