<svg width="24" height="24" viewBox="0 0 24 24" fill="none" xmlns="http://www.w3.org/2000/svg">
<path d="M18 23C17.0333 23 16.1583 22.7543 15.375 22.263C14.5917 21.7717 13.9917 21.1257 13.575 20.325C13.475 20.1417 13.4627 19.95 13.538 19.75C13.6133 19.55 13.7423 19.4083 13.925 19.325C14.1083 19.2417 14.296 19.2293 14.488 19.288C14.68 19.3467 14.8257 19.4673 14.925 19.65C15.2083 20.2 15.621 20.646 16.163 20.988C16.705 21.33 17.3173 21.5007 18 21.5C18.9667 21.5 19.7917 21.1583 20.475 20.475C21.1583 19.7917 21.5 18.9667 21.5 18C21.5 17.0333 21.1583 16.2083 20.475 15.525C19.7917 14.8417 18.9667 14.5 18 14.5C17.5167 14.5 17.0667 14.5877 16.65 14.763C16.2333 14.9383 15.8667 15.184 15.55 15.5H16.25C16.4667 15.5 16.646 15.571 16.788 15.713C16.93 15.855 17.0007 16.034 17 16.25C17 16.4667 16.929 16.646 16.787 16.788C16.645 16.93 16.466 17.0007 16.25 17H14C13.7167 17 13.4793 16.904 13.288 16.712C13.0967 16.52 13.0007 16.2827 13 16V13.75C13 13.5333 13.071 13.3543 13.213 13.213C13.355 13.0717 13.534 13.0007 13.75 13C13.9667 13 14.146 13.071 14.288 13.213C14.43 13.355 14.5007 13.534 14.5 13.75V14.425C14.95 13.9917 15.475 13.646 16.075 13.388C16.675 13.13 17.3167 13.0007 18 13C19.3833 13 20.5627 13.4877 21.538 14.463C22.5133 15.4383 23.0007 16.6173 23 18C23 19.3833 22.5123 20.5627 21.537 21.538C20.5617 22.5133 19.3827 23.0007 18 23ZM16 9C16.2833 9 16.521 8.904 16.713 8.712C16.905 8.52 17.0007 8.28267 17 8C17 7.71667 16.904 7.47933 16.712 7.288C16.52 7.09667 16.2827 7.00067 16 7H8C7.71667 7 7.47933 7.096 7.288 7.288C7.09667 7.48 7.00067 7.71733 7 8C7 8.28333 7.096 8.521 7.288 8.713C7.48 8.905 7.71733 9.00067 8 9H16ZM14.125 11H8C7.71667 11 7.47933 11.096 7.288 11.288C7.09667 11.48 7.00067 11.7173 7 12C7 12.2833 7.096 12.521 7.288 12.713C7.48 12.905 7.71733 13.0007 8 13H11.75C12.0833 12.6 12.446 12.2293 12.838 11.888C13.23 11.5467 13.659 11.2507 14.125 11ZM10.575 15H8C7.71667 15 7.47933 15.096 7.288 15.288C7.09667 15.48 7.00067 15.7173 7 16C7 16.2833 7.096 16.521 7.288 16.713C7.48 16.905 7.71733 17.0007 8 17H10.05C10.0833 16.65 10.146 16.3083 10.238 15.975C10.33 15.6417 10.4423 15.3167 10.575 15ZM5 21C4.45 21 3.97933 20.8043 3.588 20.413C3.19667 20.0217 3.00067 19.5507 3 19V5C3 4.45 3.196 3.97933 3.588 3.588C3.98 3.19667 4.45067 3.00067 5 3H19C19.55 3 20.021 3.196 20.413 3.588C20.805 3.98 21.0007 4.45067 21 5V10.575C20.6833 10.4417 20.3583 10.3293 20.025 10.238C19.6917 10.1467 19.35 10.084 19 10.05V5H5V19H10.05C10.0833 19.35 10.146 19.6917 10.238 20.025C10.33 20.3583 10.4423 20.6833 10.575 21H5Z" fill="white"/>
</svg>
