<svg width="15" height="15" viewBox="0 0 15 15" fill="none" xmlns="http://www.w3.org/2000/svg">
<path d="M12.217 11.2213C12.3491 11.3534 12.4233 11.5325 12.4233 11.7193C12.4233 11.9062 12.3491 12.0853 12.217 12.2174C12.085 12.3495 11.9058 12.4237 11.719 12.4237C11.5322 12.4237 11.353 12.3495 11.2209 12.2174L7.50083 8.49611L3.77954 12.2162C3.64745 12.3483 3.4683 12.4225 3.28149 12.4225C3.09469 12.4225 2.91554 12.3483 2.78345 12.2162C2.65136 12.0841 2.57715 11.905 2.57715 11.7182C2.57715 11.5314 2.65136 11.3522 2.78345 11.2201L6.50474 7.50001L2.78462 3.77872C2.65253 3.64663 2.57832 3.46748 2.57832 3.28068C2.57832 3.09387 2.65253 2.91472 2.78462 2.78263C2.91671 2.65054 3.09586 2.57633 3.28266 2.57633C3.46947 2.57633 3.64862 2.65054 3.78071 2.78263L7.50083 6.50392L11.2221 2.78204C11.3542 2.64995 11.5334 2.57574 11.7202 2.57574C11.907 2.57574 12.0861 2.64995 12.2182 2.78204C12.3503 2.91413 12.4245 3.09329 12.4245 3.28009C12.4245 3.46689 12.3503 3.64605 12.2182 3.77814L8.49692 7.50001L12.217 11.2213Z" fill="#2E3241"/>
</svg>
