<svg width="26" height="26" viewBox="0 0 26 26" fill="none" xmlns="http://www.w3.org/2000/svg">
<path d="M5.6875 4.875C5.6875 4.44402 5.8587 4.0307 6.16345 3.72595C6.4682 3.4212 6.88152 3.25 7.3125 3.25H18.6875C19.1185 3.25 19.5318 3.4212 19.8365 3.72595C20.1413 4.0307 20.3125 4.44402 20.3125 4.875V19.5H5.6875V4.875ZM7.3125 22.75C6.88152 22.75 6.4682 22.5788 6.16345 22.274C5.8587 21.9693 5.6875 21.556 5.6875 21.125H20.5156C20.8927 21.125 21.2544 20.9752 21.521 20.7085C21.7877 20.4419 21.9375 20.0802 21.9375 19.7031V4.875C21.9375 4.01305 21.5951 3.1864 20.9856 2.5769C20.3761 1.96741 19.5495 1.625 18.6875 1.625H7.3125C6.45055 1.625 5.6239 1.96741 5.0144 2.5769C4.40491 3.1864 4.0625 4.01305 4.0625 4.875V21.125C4.0625 21.987 4.40491 22.8136 5.0144 23.4231C5.6239 24.0326 6.45055 24.375 7.3125 24.375H21.125C21.3405 24.375 21.5472 24.2894 21.6995 24.137C21.8519 23.9847 21.9375 23.778 21.9375 23.5625C21.9375 23.347 21.8519 23.1403 21.6995 22.988C21.5472 22.8356 21.3405 22.75 21.125 22.75H7.3125ZM15.8438 11.375C16.167 11.375 16.477 11.5034 16.7055 11.732C16.9341 11.9605 17.0625 12.2705 17.0625 12.5938V13C17.0625 14.6014 15.5513 16.25 13 16.25C10.4488 16.25 8.9375 14.6014 8.9375 13V12.5938C8.9375 12.2705 9.0659 11.9605 9.29446 11.732C9.52302 11.5034 9.83302 11.375 10.1562 11.375H15.8438ZM13 6.09375C13.5926 6.09375 14.1609 6.32916 14.5799 6.74818C14.999 7.16721 15.2344 7.73553 15.2344 8.32812C15.2344 8.92072 14.999 9.48904 14.5799 9.90807C14.1609 10.3271 13.5926 10.5625 13 10.5625C12.4074 10.5625 11.8391 10.3271 11.4201 9.90807C11.001 9.48904 10.7656 8.92072 10.7656 8.32812C10.7656 7.73553 11.001 7.16721 11.4201 6.74818C11.8391 6.32916 12.4074 6.09375 13 6.09375Z" fill="white"/>
</svg>
