<svg width="36" height="34" viewBox="0 0 36 34" fill="none" xmlns="http://www.w3.org/2000/svg">
<g clip-path="url(#clip0_189_4631)">
<path d="M-3.43323e-05 17.5425C0.000362396 14.9823 1.07699 12.527 2.99326 10.7161C4.90953 8.90525 7.50866 7.887 10.2195 7.88512L25.776 7.88512C28.4879 7.88512 31.0888 8.90259 33.0065 10.7137C34.9241 12.5248 36.0015 14.9812 36.0015 17.5425C36.0015 20.1038 34.9241 22.5602 33.0065 24.3714C31.0888 26.1825 28.4879 27.2 25.776 27.2L10.227 27.2C7.51616 27.1996 4.9164 26.1828 2.999 24.3729C1.08161 22.5631 0.0034523 20.1084 0.00146484 17.5482L-3.43323e-05 17.5425ZM10.2255 23.9813C11.1202 23.9813 12.0061 23.8149 12.8327 23.4915C13.6593 23.1681 14.4103 22.6942 15.043 22.0967C15.6756 21.4992 16.1775 20.7898 16.5199 20.0092C16.8622 19.2285 17.0385 18.3918 17.0385 17.5468C17.0385 16.7018 16.8622 15.8651 16.5199 15.0844C16.1775 14.3037 15.6756 13.5944 15.043 12.9969C14.4103 12.3994 13.6593 11.9254 12.8327 11.6021C12.0061 11.2787 11.1202 11.1123 10.2255 11.1123C9.33077 11.1121 8.4448 11.2783 7.61813 11.6015C6.79146 11.9247 6.04029 12.3985 5.40751 12.9959C4.77472 13.5933 4.27271 14.3025 3.93015 15.0831C3.58758 15.8637 3.41116 16.7004 3.41096 17.5454C3.41077 18.3904 3.5868 19.2271 3.929 20.0079C4.2712 20.7886 4.77288 21.498 5.40539 22.0957C6.03789 22.6933 6.78884 23.1674 7.61536 23.4909C8.44187 23.8145 9.32777 23.9811 10.2225 23.9813H10.2255Z" fill="white"/>
</g>
<defs>
<clipPath id="clip0_189_4631">
<rect width="36" height="34" fill="white" transform="matrix(-1 0 0 -1 36 34)"/>
</clipPath>
</defs>
</svg>
