<svg width="31" height="30" viewBox="0 0 31 30" fill="none" xmlns="http://www.w3.org/2000/svg">
<path fill-rule="evenodd" clip-rule="evenodd" d="M12.5957 4.40834H17.8043C20.1324 4.40834 21.9767 4.40834 23.4194 4.59704C24.9039 4.79191 26.106 5.20137 27.0547 6.12391C28.0022 7.04767 28.4227 8.21811 28.6229 9.66357C28.7369 10.4936 28.7837 11.4593 28.8027 12.5779C28.8193 12.6717 28.821 12.7674 28.8078 12.8616C28.8167 13.5597 28.8167 14.3145 28.8167 15.1309V15.2C28.8167 15.4453 28.7166 15.6806 28.5384 15.8541C28.3603 16.0276 28.1186 16.125 27.8667 16.125C27.6147 16.125 27.3731 16.0276 27.1949 15.8541C27.0168 15.6806 26.9167 15.4453 26.9167 15.2C26.9167 14.6499 26.9167 14.1369 26.9141 13.6583H3.48586C3.48333 14.1369 3.48333 14.6499 3.48333 15.2C3.48333 17.552 3.48586 19.2231 3.66066 20.491C3.83166 21.7305 4.1534 22.4458 4.6892 22.9675C5.225 23.4892 5.95966 23.8025 7.23393 23.969C8.53607 24.1392 10.2511 24.1417 12.6667 24.1417H17.7333C17.9853 24.1417 18.2269 24.2391 18.4051 24.4126C18.5832 24.5861 18.6833 24.8213 18.6833 25.0667C18.6833 25.312 18.5832 25.5473 18.4051 25.7207C18.2269 25.8942 17.9853 25.9917 17.7333 25.9917H12.5957C10.2676 25.9917 8.42333 25.9917 6.9806 25.803C5.49606 25.6081 4.294 25.1986 3.34526 24.2761C2.3978 23.3523 1.97726 22.1819 1.77713 20.7364C1.58333 19.3304 1.58333 17.5359 1.58333 15.2691V15.1309C1.58333 14.3145 1.58333 13.5597 1.5922 12.8616C1.57862 12.7674 1.5799 12.6718 1.596 12.5779C1.61626 11.4593 1.66313 10.4936 1.77713 9.66357C1.97726 8.21811 2.3978 7.04767 3.34526 6.12391C4.294 5.20137 5.49606 4.79191 6.9806 4.59704C8.4246 4.40834 10.2676 4.40834 12.5957 4.40834ZM3.51626 11.8083H26.8837C26.8678 11.1733 26.8196 10.5394 26.7393 9.90901C26.5683 8.66951 26.2466 7.95417 25.7108 7.43247C25.175 6.91077 24.4403 6.59751 23.1661 6.43101C21.8652 6.26081 20.1489 6.25834 17.7333 6.25834H12.6667C10.2511 6.25834 8.53607 6.26081 7.23267 6.43101C5.95966 6.59751 5.225 6.91077 4.6892 7.43247C4.1534 7.95417 3.83166 8.66951 3.66066 9.91024C3.58466 10.4591 3.5416 11.0844 3.51626 11.8083ZM24.0667 16.7417C24.3186 16.7417 24.5603 16.8391 24.7384 17.0126C24.9166 17.1861 25.0167 17.4213 25.0167 17.6667V22.8343L25.9287 21.9463C26.0156 21.8555 26.1205 21.7826 26.2371 21.732C26.3536 21.6815 26.4794 21.6543 26.6069 21.6521C26.7345 21.6499 26.8612 21.6727 26.9795 21.7193C27.0978 21.7658 27.2052 21.835 27.2954 21.9229C27.3857 22.0107 27.4568 22.1153 27.5046 22.2305C27.5523 22.3457 27.5758 22.469 27.5735 22.5933C27.5713 22.7174 27.5434 22.8399 27.4915 22.9534C27.4395 23.0669 27.3647 23.169 27.2713 23.2537L24.738 25.7203C24.5599 25.8936 24.3184 25.9909 24.0667 25.9909C23.8149 25.9909 23.5735 25.8936 23.3953 25.7203L20.862 23.2537C20.7687 23.169 20.6938 23.0669 20.6419 22.9534C20.59 22.8399 20.562 22.7174 20.5598 22.5933C20.5575 22.469 20.581 22.3457 20.6288 22.2305C20.6766 22.1153 20.7477 22.0107 20.8379 21.9229C20.9281 21.835 21.0356 21.7658 21.1538 21.7193C21.2721 21.6727 21.3988 21.6499 21.5264 21.6521C21.654 21.6543 21.7797 21.6815 21.8963 21.732C22.0128 21.7826 22.1177 21.8555 22.2047 21.9463L23.1167 22.8343V17.6667C23.1167 17.4213 23.2168 17.1861 23.3949 17.0126C23.5731 16.8391 23.8147 16.7417 24.0667 16.7417ZM6.65 20.1333C6.65 19.888 6.75009 19.6527 6.92825 19.4793C7.10641 19.3058 7.34804 19.2083 7.6 19.2083H12.6667C12.9186 19.2083 13.1603 19.3058 13.3384 19.4793C13.5166 19.6527 13.6167 19.888 13.6167 20.1333C13.6167 20.3787 13.5166 20.6139 13.3384 20.7874C13.1603 20.9609 12.9186 21.0583 12.6667 21.0583H7.6C7.34804 21.0583 7.10641 20.9609 6.92825 20.7874C6.75009 20.6139 6.65 20.3787 6.65 20.1333ZM14.8833 20.1333C14.8833 19.888 14.9834 19.6527 15.1616 19.4793C15.3397 19.3058 15.5814 19.2083 15.8333 19.2083H16.4667C16.7186 19.2083 16.9603 19.3058 17.1384 19.4793C17.3166 19.6527 17.4167 19.888 17.4167 20.1333C17.4167 20.3787 17.3166 20.6139 17.1384 20.7874C16.9603 20.9609 16.7186 21.0583 16.4667 21.0583H15.8333C15.5814 21.0583 15.3397 20.9609 15.1616 20.7874C14.9834 20.6139 14.8833 20.3787 14.8833 20.1333Z" fill="#CA9ECD"/>
</svg>
