<svg width="167" height="155" viewBox="0 0 167 155" fill="none" xmlns="http://www.w3.org/2000/svg">
<g clip-path="url(#clip0_189_4814)">
<path d="M43.3991 116.492C44.0497 116.694 44.6512 117.012 45.1691 117.429C45.6871 117.846 46.1113 118.354 46.4177 118.924C46.724 119.493 46.9064 120.113 46.9543 120.748C47.0023 121.383 46.915 122.021 46.6974 122.624L41.4786 137.156C41.2821 137.781 40.9516 138.363 40.5069 138.868C40.0622 139.372 39.5125 139.788 38.8907 140.09C38.2689 140.392 37.5877 140.575 36.888 140.628C36.1882 140.68 35.4843 140.601 34.8183 140.395C34.1523 140.189 33.538 139.86 33.0121 139.428C32.4861 138.997 32.0594 138.471 31.7574 137.883C31.4554 137.295 31.2844 136.656 31.2546 136.005C31.2248 135.354 31.3368 134.704 31.5839 134.094L36.8026 119.563C37.2387 118.344 38.1787 117.336 39.4157 116.76C40.6528 116.184 42.0856 116.088 43.3991 116.492ZM74.7116 116.492C75.3622 116.694 75.9637 117.012 76.4817 117.429C76.9996 117.846 77.4239 118.354 77.7302 118.924C78.0365 119.493 78.2188 120.113 78.2668 120.748C78.3148 121.383 78.2275 122.021 78.0099 122.624L67.5724 151.687C67.3758 152.312 67.0453 152.895 66.6006 153.399C66.156 153.903 65.6063 154.319 64.9845 154.621C64.3626 154.924 63.6815 155.106 62.9817 155.159C62.282 155.211 61.5781 155.132 60.9121 154.926C60.2461 154.72 59.6318 154.391 59.1058 153.96C58.5799 153.528 58.1531 153.002 57.8512 152.414C57.5492 151.826 57.3782 151.187 57.3484 150.536C57.3185 149.885 57.4305 149.236 57.6776 148.626L68.1151 119.563C68.5512 118.344 69.4912 117.336 70.7282 116.76C71.9653 116.184 73.3981 116.088 74.7116 116.492ZM106.024 116.492C106.675 116.694 107.276 117.012 107.794 117.429C108.312 117.846 108.736 118.354 109.043 118.924C109.349 119.493 109.531 120.113 109.579 120.748C109.627 121.383 109.54 122.021 109.322 122.624L104.104 137.156C103.907 137.781 103.577 138.363 103.132 138.868C102.687 139.372 102.138 139.788 101.516 140.09C100.894 140.392 100.213 140.575 99.513 140.628C98.8132 140.68 98.1093 140.601 97.4433 140.395C96.7773 140.189 96.163 139.86 95.637 139.428C95.1111 138.997 94.6844 138.471 94.3824 137.883C94.0804 137.295 93.9094 136.656 93.8796 136.005C93.8498 135.354 93.9618 134.704 94.2089 134.094L99.4276 119.563C99.8637 118.344 100.804 117.336 102.041 116.76C103.278 116.184 104.711 116.088 106.024 116.492ZM137.337 116.492C137.987 116.694 138.589 117.012 139.107 117.429C139.625 117.846 140.049 118.354 140.355 118.924C140.661 119.493 140.844 120.113 140.892 120.748C140.94 121.383 140.853 122.021 140.635 122.624L130.197 151.687C130.001 152.312 129.67 152.895 129.226 153.399C128.781 153.903 128.231 154.319 127.609 154.621C126.988 154.924 126.306 155.106 125.607 155.159C124.907 155.211 124.203 155.132 123.537 154.926C122.871 154.72 122.257 154.391 121.731 153.96C121.205 153.528 120.778 153.002 120.476 152.414C120.174 151.826 120.003 151.187 119.973 150.536C119.944 149.885 120.056 149.236 120.303 148.626L130.74 119.563C131.176 118.344 132.116 117.336 133.353 116.76C134.59 116.184 136.023 116.088 137.337 116.492ZM139.915 48.6991C137.747 38.5579 132.141 29.3261 123.916 22.3537C115.691 15.3813 105.279 11.034 94.201 9.94725C83.1234 8.86054 71.9618 11.0915 62.348 16.3139C52.7343 21.5363 45.1727 29.4763 40.7689 38.9729C35.8303 38.4448 30.8275 38.8579 26.0668 40.1868C21.3062 41.5157 16.8878 43.7324 13.0823 46.7013C9.27685 49.6702 6.16427 53.3288 3.93518 57.453C1.70608 61.5772 0.407379 66.0803 0.118582 70.6866C-0.170215 75.2929 0.556971 79.9054 2.25562 84.2418C3.95427 88.5782 6.58863 92.5471 9.99742 95.9057C13.4062 99.2642 17.5177 101.942 22.0801 103.774C26.6426 105.607 31.56 106.555 36.5313 106.563H135.688C143.632 106.571 151.282 103.777 157.089 98.7454C162.897 93.7143 166.427 86.8225 166.964 79.4661C167.501 72.1098 165.006 64.8388 159.984 59.1261C154.961 53.4134 147.787 49.6861 139.915 48.6991Z" fill="#CA9ECD"/>
</g>
<defs>
<clipPath id="clip0_189_4814">
<rect width="167" height="155" fill="white"/>
</clipPath>
</defs>
</svg>
