<svg width="23" height="22" viewBox="0 0 23 22" fill="none" xmlns="http://www.w3.org/2000/svg">
<path fill-rule="evenodd" clip-rule="evenodd" d="M6.0618 2.97917C5.7968 2.97926 5.53593 3.04457 5.30234 3.1693C5.06875 3.29403 4.86968 3.47432 4.7228 3.69417L1.4222 8.62767C1.2208 8.93017 1.19689 9.317 1.35966 9.6415C3.16592 13.2422 5.67606 16.4467 8.74256 19.0667L10.3519 20.4426C10.5569 20.6178 10.8181 20.714 11.0881 20.714C11.3581 20.714 11.6193 20.6178 11.8243 20.4426L13.4337 19.0676C16.5006 16.4475 19.0111 13.2427 20.8175 9.6415C20.9802 9.317 20.9554 8.93017 20.754 8.62767L17.4516 3.69417C17.3047 3.47462 17.1057 3.29459 16.8723 3.17003C16.6389 3.04547 16.3782 2.98022 16.1135 2.98009L6.0618 2.97917ZM5.87051 4.45592C5.89154 4.42459 5.92 4.39891 5.95336 4.38116C5.98673 4.36341 6.02398 4.35414 6.0618 4.35417H8.21376L6.45264 8.56717C6.4123 8.66356 6.3815 8.76365 6.36068 8.866C5.71301 8.81781 5.06612 8.75975 4.42023 8.69184L3.12814 8.55709L5.87051 4.45592ZM3.06836 9.93301C4.71857 12.9507 6.89684 15.65 9.50034 17.9034L6.62646 10.2639C5.84237 10.2102 5.05931 10.1424 4.27769 10.0604L3.06836 9.93301ZM8.13191 10.3492L11.0876 18.2087L14.0443 10.3492C12.0742 10.4384 10.1011 10.4384 8.13099 10.3492H8.13191ZM15.5507 10.2639L12.6768 17.9034C15.2803 15.65 17.4586 12.9507 19.1088 9.93301L17.8994 10.0604C17.1177 10.142 16.3351 10.2098 15.5507 10.2639ZM19.0481 8.55709L17.7551 8.69275C17.1092 8.76067 16.4623 8.81873 15.8146 8.86692C15.7942 8.76428 15.7637 8.66388 15.7236 8.56717L13.9615 4.35417H16.1135C16.1513 4.35414 16.1886 4.36341 16.2219 4.38116C16.2553 4.39891 16.2838 4.42459 16.3048 4.45592L19.0481 8.55709ZM14.3919 8.95584C12.1912 9.06951 9.98683 9.06951 7.78521 8.95584L9.70818 4.35417H12.4671L14.391 8.95584H14.3919Z" fill="#E9E9E9"/>
</svg>
