<svg width="32" height="32" viewBox="0 0 32 32" fill="none" xmlns="http://www.w3.org/2000/svg">
<path d="M15.35 2.143C15.67 1.953 16.06 1.953 16.37 2.143L27.29 8.783C27.55 8.943 27.71 9.233 27.71 9.533L15.86 17.5L4 9.632V9.532C4 9.232 4.16 8.942 4.42 8.792L15.35 2.143Z" fill="#F3C07B"/>
<path d="M15.856 16.246L27.216 9.346C27.2658 9.3163 27.3226 9.30033 27.3806 9.29973C27.4386 9.29913 27.4957 9.31391 27.5461 9.34258C27.5965 9.37124 27.6384 9.41276 27.6676 9.4629C27.6967 9.51304 27.7121 9.57001 27.712 9.628V21.968C27.7121 22.2652 27.6359 22.5574 27.4905 22.8165C27.3452 23.0757 27.1356 23.2932 26.882 23.448L16.242 29.908C16.2149 29.9229 16.1855 29.933 16.155 29.938C16.1281 29.946 16.1001 29.9497 16.072 29.949C15.9585 29.9808 15.8398 29.9898 15.7227 29.9755C15.6057 29.9613 15.4926 29.9241 15.39 29.866H15.396L13 19L15.856 16.246Z" fill="#FFCE7C"/>
<path d="M15.86 29.622V16.252L4.51 9.352C4.45989 9.31978 4.40201 9.30169 4.34247 9.29962C4.28292 9.29756 4.22393 9.3116 4.1717 9.34028C4.11948 9.36895 4.07596 9.41118 4.04574 9.46253C4.01552 9.51387 3.99972 9.57242 4 9.632V21.972C4 22.582 4.32 23.142 4.83 23.452L15.4 29.872C15.4451 29.9005 15.497 29.9164 15.5503 29.9181C15.6036 29.9198 15.6564 29.9073 15.7033 29.8818C15.7501 29.8564 15.7894 29.8189 15.8169 29.7732C15.8445 29.7275 15.8593 29.6753 15.86 29.622Z" fill="#E19747"/>
<path d="M14.5 26.782V24.822C14.5 24.592 14.38 24.382 14.19 24.262L11.39 22.572C11.2 22.462 10.96 22.592 10.96 22.812V24.772C10.96 25.002 11.08 25.212 11.27 25.332L14.07 27.022C14.26 27.132 14.5 27.002 14.5 26.782Z" fill="#D3D3D3"/>
<path d="M11.76 16.553V11.992L8.47998 11.772V14.932C8.47998 15.032 8.52998 15.132 8.61998 15.192L11.3 16.822C11.5 16.932 11.76 16.793 11.76 16.553Z" fill="#8C5543"/>
<path d="M20.34 4.563L8.47998 11.773L11.76 13.773L23.62 6.573L20.34 4.563Z" fill="#A56953"/>
</svg>
